<svg
    className="w-6 h-6 text-white"
    fill="currentColor"
    viewBox="0 0 32 32"
    xmlns="http://www.w3.org/2000/svg"
>
    <path d="M16.04 2.01c-7.84 0-14.2 6.37-14.2 14.2 0 2.51.66 4.96 1.92 7.12L2 30l6.9-1.8a14.17 14.17 0 0 0 7.13 1.9c7.83 0 14.2-6.36 14.2-14.19 0-7.84-6.37-14.2-14.2-14.2zm0 25.96c-2.2 0-4.37-.6-6.26-1.75l-.45-.27-4.1 1.07 1.1-4.01-.29-.41a11.9 11.9 0 0 1-2.02-6.65c0-6.58 5.35-11.94 11.94-11.94 6.59 0 11.95 5.36 11.95 11.94 0 6.6-5.36 11.94-11.95 11.94zm6.6-8.92c-.37-.18-2.2-1.09-2.55-1.22-.34-.12-.6-.18-.85.18-.25.36-.98 1.21-1.2 1.45-.22.25-.44.28-.8.09-.36-.18-1.5-.55-2.86-1.76a10.66 10.66 0 0 1-1.97-2.45c-.2-.34-.02-.53.15-.7.16-.15.36-.4.54-.6.18-.2.24-.35.37-.6.12-.26.06-.48-.03-.67-.09-.18-.85-2.04-1.17-2.8-.3-.7-.6-.6-.85-.61l-.72-.01c-.25 0-.65.09-.98.44-.34.36-1.3 1.27-1.3 3.1 0 1.82 1.33 3.58 1.52 3.83.18.24 2.61 3.99 6.32 5.6 3.71 1.61 3.71 1.08 4.38 1.01.66-.07 2.18-.88 2.49-1.74.3-.87.3-1.61.21-1.76-.09-.15-.33-.25-.7-.43z" />
</svg>